<svg width="30" height="30" viewBox="0 0 30 30" fill="none" xmlns="http://www.w3.org/2000/svg">
<g clip-path="url(#clip0_36_43)">
<path d="M21.8749 1.14624C20.4674 1.16813 19.0905 1.56106 17.8834 2.28533C16.6763 3.0096 15.6816 4.03958 14.9999 5.27124C14.3182 4.03958 13.3236 3.0096 12.1165 2.28533C10.9094 1.56106 9.53251 1.16813 8.12495 1.14624C5.88112 1.24373 3.76708 2.22531 2.24468 3.87653C0.722272 5.52775 -0.0847403 7.7144 -5.21364e-05 9.95874C-5.21368e-05 18.4275 13.6949 28.2087 14.2774 28.6237L14.9999 29.135L15.7224 28.6237C16.3049 28.2112 29.9999 18.4275 29.9999 9.95874C30.0846 7.7144 29.2776 5.52775 27.7552 3.87653C26.2328 2.22531 24.1188 1.24373 21.8749 1.14624ZM14.9999 26.0575C10.9337 23.02 2.49995 15.5575 2.49995 9.95874C2.4145 8.37714 2.95791 6.8259 4.01165 5.64336C5.0654 4.46083 6.54399 3.74293 8.12495 3.64624C9.70591 3.74293 11.1845 4.46083 12.2382 5.64336C13.292 6.8259 13.8354 8.37714 13.7499 9.95874H16.2499C16.1645 8.37714 16.7079 6.8259 17.7617 5.64336C18.8154 4.46083 20.294 3.74293 21.8749 3.64624C23.4559 3.74293 24.9345 4.46083 25.9882 5.64336C27.042 6.8259 27.5854 8.37714 27.4999 9.95874C27.4999 15.56 19.0662 23.02 14.9999 26.0575Z" fill="black"/>
</g>
<defs>
<clipPath id="clip0_36_43">
<rect width="30" height="30" fill="white"/>
</clipPath>
</defs>
</svg>
